PathFileType	4	(X/Y/Z)	24_2_62_p0_0-312.trc
DataRate	CameraRate	NumFrames	NumMarkers	Units	OrigDataRate	OrigDataStartFrame	OrigNumFrames
59.0	59.0	5	27	m	59.0	195	313
Frame#	Time	RHip			RKnee			RAnkle			RBigToe			RSmallToe			RHeel			LHip			LKnee			LAnkle			LBigToe			LSmallToe			LHeel			Neck			Head			Nose			RShoulder			RElbow			RWrist			RThumb			RIndex			RPinky			LShoulder			LElbow			LWrist			LThumb			LIndex			LPinky			
		X1	Y1	Z1	X2	Y2	Z2	X3	Y3	Z3	X4	Y4	Z4	X5	Y5	Z5	X6	Y6	Z6	X7	Y7	Z7	X8	Y8	Z8	X9	Y9	Z9	X10	Y10	Z10	X11	Y11	Z11	X12	Y12	Z12	X13	Y13	Z13	X14	Y14	Z14	X15	Y15	Z15	X16	Y16	Z16	X17	Y17	Z17	X18	Y18	Z18	X19	Y19	Z19	X20	Y20	Z20	X21	Y21	Z21	X22	Y22	Z22	X23	Y23	Z23	X24	Y24	Z24	X25	Y25	Z25	X26	Y26	Z26	X27	Y27	Z27	
195	3.305084745762712	0.43152124562968325	0.5610834086986307	0.847819216608509	0.44554011494814383	0.6013322229174859	1.284041483730192	0.4251157210236391	0.6784609703011347	1.6865972172718562	0.40899896302650185	0.44286728947349124	1.6621950903230287	0.46975271242587174	0.4784999132697694	1.6689930137992022	0.40890855640464757	0.7560000414563207	1.7568466959033913	0.24610511332097823	0.5381938413273557	0.8560108964570471	0.22008797128475818	0.5657497963074157	1.265295523921883	0.21989264255699933	0.6711650845973597	1.6877962822678252	0.24146537093477125	0.45482356177571553	1.6633288904968389	0.18061995466569464	0.537261596853824	1.6832043452082903	0.23967066862589462	0.712748221845129	1.7252716076109047	0.3251138149249449	0.4656711585910191	0.3378296453548908	0.3494667444429046	0.37668835744220314	0.11239869709406836	0.35619929418969154	0.3683514712631156	0.22179432986878797	0.46105098925914273	0.4362174648145859	0.40228290499685293	0.5176263570290409	0.37319555955851014	0.6007652667960857	0.44609033845729457	0.28919224264413984	0.4418336188329339	0.4037912990220347	0.2872329321887472	0.3500247274372872	0.39893321828703	0.23992160744496657	0.3333879958205228	0.419128294464974	0.17958543711903727	0.375991189355727	0.18085355541961579	0.4691440279259868	0.40482698220593233	0.1256933444485877	0.5894617036635905	0.625969933981593	0.21240124700046728	0.38873667652798793	0.650234243456197	0.2670292141344346	0.2584309457721437	0.6289901839238192	0.2709898305986906	0.24380038288416195	0.6438532986543509	0.2399389043603306	0.33528503378276225	0.7066703347751966
196	3.3220338983050848	0.4319962533530175	0.5604653957924771	0.8439529025762617	0.44554282480921165	0.6013707488083396	1.2841090893438678	0.4249866623344178	0.6785238309515518	1.68670681223504	0.40945455355213084	0.44556764782719255	1.6669419851027076	0.4596655692717322	0.4909904457219281	1.6761509764564273	0.4093172491483056	0.7547793711132208	1.7606137097838488	0.24464832521418123	0.5247412330968969	0.8537824271371988	0.21960418359904046	0.5631805260863454	1.2599950221483538	0.2197964021313616	0.6710988128857525	1.6878252135426346	0.2415968360703231	0.4506364669988134	1.6622803467862695	0.1811280516831878	0.535618574392611	1.687029926271202	0.23457413877329358	0.7066254672938816	1.7228916267446894	0.3245808415204637	0.46816629174411933	0.34114001247749537	0.34940939442825614	0.37676387333343064	0.11258187677307939	0.35613738021367636	0.36835215188481707	0.2183871549772263	0.4613464334803119	0.4376546538948627	0.4061417879959114	0.5222821661137614	0.375107236462167	0.6113717299667106	0.43715012538743225	0.3019500168104733	0.4508608229047021	0.38795611468194185	0.2660290666935038	0.36333916782429737	0.3938953481469817	0.21831291056677637	0.3464136820368964	0.4002122724719697	0.21146320832399637	0.38874741900238313	0.18117532722547794	0.47030595479431886	0.41231929815581664	0.12191057084776749	0.6085658428079199	0.6338336312994646	0.21226110193952238	0.3887807515081101	0.6503036175436548	0.26665696295783686	0.25876536479965	0.6286523476040454	0.27069604645906314	0.2442356755253694	0.6438510354512507	0.24243073334434245	0.32636768748617073	0.7053356416182587
197	3.3389830508474576	0.43175129460899975	0.5602632014810114	0.8516859786613944	0.44815702602734164	0.6152203018296639	1.288380255328332	0.42049526186816866	0.676462495526479	1.6860185855315226	0.4088629489812575	0.44249741413068816	1.6619459624020334	0.4645890330651859	0.4926049567514712	1.6762738414164111	0.40223721191754885	0.7744548807779845	1.7659488049167007	0.2448143057669182	0.523482278395997	0.8580204315834001	0.21922138807639008	0.5667654611251315	1.269821879012564	0.2196888465798583	0.6712370004812972	1.6879613332781693	0.2416230205936982	0.4505195818667558	1.6623364013415214	0.18122479598835867	0.5356889891587535	1.6872211542856166	0.23449772959672338	0.7078058056968034	1.7237233434785062	0.3206644640009807	0.4672372119431622	0.3450538609167454	0.344333306997002	0.3889815796284441	0.11206740099268356	0.35232334437060775	0.36383094922059117	0.21885329116054586	0.4611490435124088	0.4382604074240433	0.4097408700597198	0.5222617691565964	0.37520695578965446	0.6114264861527341	0.42564703117772473	0.29852291954341625	0.4487013356137278	0.38135663448272145	0.25312044209555656	0.36728254963906504	0.383849386249593	0.22753968913069975	0.36126735476969	0.3967103178967993	0.21214032409888076	0.39631921026718153	0.18274725967648997	0.48064350732056504	0.41314338282210417	0.12179746800826287	0.608109790695178	0.6420764533585179	0.2123032876383216	0.3884410103417476	0.6503683945119296	0.2631479790745363	0.25771893691991	0.6285692709491618	0.27590247626957426	0.23297051994570922	0.6421041698132312	0.24185013050401086	0.32621968930698286	0.708955880761316
198	3.3559322033898304	0.43138012190686104	0.5609898241646054	0.8480926323850283	0.44778119587177495	0.6149123208118267	1.2969082427733127	0.4247039118033845	0.6792922188123338	1.686707959007738	0.4024551376792382	0.4443452680934611	1.6636815170438461	0.4645589497495686	0.49229442566071563	1.6761810677946927	0.4008195945351535	0.7750635548283078	1.7707876272286054	0.24360517639144236	0.5251489910191053	0.8578572630100896	0.21326186667858338	0.5796910559776178	1.278862937147865	0.2196106924986279	0.6713111486953909	1.6879712523078536	0.2415851502211428	0.4504269582247508	1.6626022074087086	0.17991303456556354	0.5367514081521714	1.6920068982866951	0.2347275776283089	0.7088740495157698	1.7241748346389212	0.32635398859220643	0.45423887779577754	0.3414080116191517	0.34039716288644456	0.38608269377128823	0.11215961236390071	0.35573827663680724	0.36745941585182407	0.21508066539588117	0.46118423103499884	0.4361337762284675	0.40224165085239527	0.5184176899877756	0.3743283144576005	0.6050766191693354	0.4219090132035513	0.2967045907385101	0.44855572707035046	0.37298946939740885	0.2526696018789834	0.3703248141378596	0.37744004228894573	0.21570675423868318	0.3613735072450225	0.38596209149273136	0.21085759848812616	0.4003698145156322	0.18219710361640415	0.48238238535947536	0.41249744241312714	0.11817340289175916	0.6041439056965069	0.6415828834291198	0.2122332471516381	0.3887656584084823	0.6505163016990202	0.26341999377085096	0.25706023629824115	0.6286064053783109	0.2763121399178829	0.23170894306340498	0.6418883977827347	0.23828993248590344	0.32578101811029797	0.7129626609490046
199	3.3728813559322033	0.4313917747228389	0.5610136058884742	0.8479665801145692	0.4408182415219181	0.6321061693904843	1.3030779385370053	0.42471619713407344	0.6794954570385789	1.6867835682121284	0.4089851528229018	0.4428528496550378	1.6622201011095332	0.46448625400218646	0.4927087236305098	1.676364294494984	0.4024233980166195	0.7719428538961672	1.7689300786298963	0.24370405725961916	0.5259601952748142	0.8578155884142055	0.2126614771387471	0.5810652932506002	1.2749950097702	0.21948049247566684	0.6713748658349775	1.6880902146109662	0.23558280548879756	0.46419795550291487	1.6696122603315016	0.17981807330102567	0.536861064569583	1.6922536269422692	0.22808857905269736	0.7263026867568129	1.732744654438974	0.3205894960898616	0.4658045146795532	0.3342146524679598	0.34039610955677996	0.3859237829664489	0.10854728731784717	0.3557095368902717	0.3661786681178073	0.2118740450088898	0.461118302292269	0.4364181346944382	0.4021164808056344	0.5221664694194311	0.37557899015018176	0.6083503347217605	0.42165862381524716	0.2971159834357489	0.4518597747122527	0.3643224968039218	0.2623757909982076	0.3709405109013404	0.3710402275065114	0.21270647521976374	0.3614336337453371	0.3823178925458535	0.21025437610299386	0.39725943061462915	0.1822113655458187	0.48297973049333726	0.4120042570562284	0.11573202671266296	0.6135383033503208	0.6399390985049316	0.21966669988148327	0.38902947086346834	0.6500811448303587	0.2637650997154895	0.25697180426298544	0.6286469025312202	0.2766210198546527	0.23214081789237875	0.6419841665014221	0.23838789172550348	0.32581542746762654	0.7129668134828147
